<?xml version="1.0" encoding="iso-8859-1"?>
<!-- Generator: Adobe Illustrator 19.0.0, SVG Export Plug-In . SVG Version: 6.00 Build 0)  -->
<svg version="1.1" id="Capa_1" xmlns="http://www.w3.org/2000/svg" xmlns:xlink="http://www.w3.org/1999/xlink" x="0px" y="0px"
	 viewBox="0 0 512 512" style="enable-background:new 0 0 512 512;" xml:space="preserve">
<g>
	<g>
		<path d="M502,0.062H262c-5.523,0-10,4.477-10,10v142h-92.654c15.785-35.522,17.778-70.12,17.865-71.771
			c0.196-3.742-1.717-7.279-4.955-9.164c-3.24-1.886-7.259-1.803-10.416,0.215c-1.17,0.748-23.042,14.904-43.369,40.162
			c-3.229-45.853-20.147-80.746-20.939-82.357c-1.683-3.42-5.162-5.586-8.973-5.586c-0.002,0-0.005,0-0.007,0
			c-3.813,0.002-7.293,2.174-8.972,5.598c-0.785,1.602-17.46,36.117-20.782,81.568c-20.4-25.052-42.383-38.754-43.561-39.478
			c-3.165-1.946-7.148-1.976-10.343-0.079c-3.195,1.897-5.074,5.41-4.88,9.12c0.096,1.833,2.546,44.321,23.639,83.572H13.032
			c-3.071,0-5.973,1.412-7.868,3.828s-2.576,5.57-1.844,8.553l23.672,96.547C11.595,276.031,0,289.716,0,306.063
			c0,14.525,9.158,26.945,22,31.807v164.068c0,5.522,4.477,10,10,10s10-4.478,10-10V340.063h238v161.875c0,5.522,4.477,10,10,10
			s10-4.478,10-10V340.063c18.748,0,34-15.252,34-34c0-4.99-1.089-9.727-3.029-14H502c5.523,0,10-4.478,10-10v-272
			C512,4.539,507.523,0.062,502,0.062z M268.261,172.063c9.925,0,18,8.075,18,18c0,9.925-8.074,17.999-17.999,17.999H148.67
			c-2.988,0-5.419-2.431-5.419-5.419v-25.161c0-2.988,2.431-5.419,5.419-5.419H268.261z M291.023,228.062v44h-98.462
			c-12.131,0-22-9.869-22-22c0-12.131,9.869-22,22-22h75.701H291.023z M156.803,272.063h-17.607c-12.132,0-22.001-9.87-22.001-22
			c0-12.131,9.869-22,22-22h9.475h8.133c-3.954,6.403-6.242,13.938-6.242,22C150.561,258.125,152.849,265.659,156.803,272.063z
			 M117.925,147.435c0.625-0.626,1.184-1.338,1.64-2.146c10.168-18.014,23.505-32.337,34.263-42.132
			c-3.009,14.828-8.588,34.493-18.778,52.878c-3.146,2.005-5.821,4.681-7.826,7.827h-11.502
			C116.664,158.346,117.389,152.868,117.925,147.435z M88.577,61.702c5.075,16.189,10.412,39.235,10.425,64.589
			c0.006,12.151-1.2,24.756-3.59,37.573H81.851c-2.403-12.806-3.622-25.402-3.628-37.545C78.209,100.96,83.521,77.898,88.577,61.702
			z M23.305,102.594c10.795,9.577,24.259,23.766,34.533,41.966c0.392,0.694,0.861,1.315,1.38,1.876
			c0.548,5.76,1.314,11.573,2.32,17.427H46.835c-1.449-2.261-2.832-4.555-4.131-6.858C32.074,138.172,26.348,117.773,23.305,102.594
			z M25.78,183.864h15.704H73.7h6.364h23.507h19.68v18.779c0,2.814,0.467,5.52,1.315,8.052
			c-15.967,5.953-27.371,21.352-27.371,39.367c0,8.062,2.288,15.597,6.242,22H47.405L25.78,183.864z M300,320.063H34
			c-7.72,0-14-6.28-14-14c0-7.72,6.28-14,14-14h5.507c0.015,0,0.031,0.002,0.046,0.002c0.011,0,0.022-0.002,0.032-0.002h99.61H300
			c7.72,0,14,6.28,14,14C314,313.782,307.72,320.063,300,320.063z M492,272.063L492,272.063H311.023v-54
			c0-5.294-4.116-9.615-9.322-9.966c2.907-5.369,4.561-11.512,4.561-18.034c0-19.692-15.057-35.93-34.262-37.814V20.062h220V272.063
			z"/>
	</g>
</g>
<g>
	<g>
		<path d="M462,40.049H302c-5.523,0-10,4.477-10,10v80.513c0,5.523,4.477,10,10,10s10-4.477,10-10V60.049h140v172.027h-65
			c-5.523,0-10,4.477-10,10s4.477,10,10,10h75c5.523,0,10-4.477,10-10.001V50.049C472,44.526,467.523,40.049,462,40.049z"/>
	</g>
</g>
<g>
	<g>
		<path d="M356.57,235.002c-1.86-1.86-4.44-2.93-7.07-2.93s-5.21,1.07-7.07,2.93c-1.86,1.86-2.93,4.44-2.93,7.07
			c0,2.64,1.07,5.21,2.93,7.07c1.86,1.87,4.44,2.93,7.07,2.93s5.21-1.06,7.07-2.93c1.86-1.86,2.93-4.43,2.93-7.07
			C359.5,239.442,358.43,236.861,356.57,235.002z"/>
	</g>
</g>
<g>
	<g>
		<path d="M432.262,173.713l-43.301-75c-1.786-3.094-5.087-5-8.66-5s-6.874,1.906-8.66,5l-43.301,75c-1.787,3.094-1.787,6.906,0,10
			c1.786,3.094,5.087,5,8.66,5h86.603c3.572,0,6.874-1.906,8.659-5C434.049,180.619,434.049,176.807,432.262,173.713z
			 M354.32,168.713l25.981-45l25.981,45H354.32z"/>
	</g>
</g>
<g>
</g>
<g>
</g>
<g>
</g>
<g>
</g>
<g>
</g>
<g>
</g>
<g>
</g>
<g>
</g>
<g>
</g>
<g>
</g>
<g>
</g>
<g>
</g>
<g>
</g>
<g>
</g>
<g>
</g>
</svg>
